<?xml version="1.0" encoding="UTF-8"?>
<svg width="32px" height="32px" viewBox="0 0 32 32" version="1.1" xmlns="http://www.w3.org/2000/svg" xmlns:xlink="http://www.w3.org/1999/xlink">
    <title>C253A45E-B52E-433F-933D-D255FA02AC59</title>
    <defs>
        <path d="M9,2 C10.5976809,2 11.9036609,3.24891996 11.9949073,4.82372721 L12,5 L12,6 L25,6 C26.5976809,6 27.9036609,7.24891996 27.9949073,8.82372721 L28,9 L28,12 L28.999656,12 C29.8651216,11.9997024 30.6850671,12.3729425 31.2526275,13.0178709 L31.3790287,13.1714771 C31.9065365,13.8576011 32.1101003,14.7352005 31.9485206,15.5622658 L31.9047323,15.7521198 L28.9663227,27.7719999 C28.632278,29.0263851 27.5326966,29.916519 26.2509496,29.9944418 L26.0666667,30 L3.26266667,30 C3.18376885,30 3.1070051,29.990863 3.03337584,29.9735893 L2.964,29.953 L2.84120301,29.940883 C1.29429133,29.7377813 0.116175068,28.4725124 0.00782257151,26.920857 L-1.13686838e-13,26.7333333 L-1.13686838e-13,5 C-1.13686838e-13,3.40231912 1.24891996,2.09633912 2.82372721,2.00509269 L3,2 L9,2 Z M10.5041944,13.9999987 C10.0995366,13.9995385 9.73888826,14.2422803 9.59182867,14.5753853 L9.55428804,14.6778749 L6.41044841,27.588798 C6.37656554,27.708926 6.33629508,27.8257403 6.29008796,27.9389438 L6.263,27.9999987 L26.0670106,27.9999987 C26.4791064,28.0001418 26.8444298,27.7482676 26.9912739,27.3883021 L27.028601,27.2772136 L29.9670107,15.2573333 C30.046959,14.9571162 29.98283,14.6367932 29.7934682,14.3904923 C29.6311581,14.1793772 29.392645,14.0432028 29.1319474,14.0086717 L29,13.9999987 L10.5041944,13.9999987 Z M9,4 L3,4 C2.48716416,4 2.06449284,4.38604019 2.00672773,4.88337887 L1.99990453,5 L1.99990453,26.7195157 C2.00859815,27.3486253 2.47774267,27.8759978 3.10155848,27.9579016 C3.68378657,28.0343452 4.23601723,27.7011076 4.43846689,27.1924008 L4.47637863,27.0807918 L7.62247228,14.1620006 C7.97853004,12.9380671 9.06588577,12.0794267 10.3244363,12.0052195 L10.5053333,12 L26,12 L26,9 C26,8.48716416 25.6139598,8.06449284 25.1166211,8.00672773 L25,8 L11,8 C10.4871642,8 10.0644928,7.61395981 10.0067277,7.11662113 L10,7 L10,5 C10,4.48716416 9.61395981,4.06449284 9.11662113,4.00672773 L9,4 Z" id="path-1"></path>
    </defs>
    <g id="Symbols" stroke="none" stroke-width="1" fill="none" fill-rule="evenodd">
        <g id="Icons/Folders/Open">
            <mask id="mask-2" fill="white">
                <use xlink:href="#path-1"></use>
            </mask>
            <use id="Icon" fill="#3C3C3C" xlink:href="#path-1"></use>
        </g>
    </g>
</svg>