<?xml version="1.0" encoding="UTF-8"?>
<svg width="32px" height="32px" viewBox="0 0 32 32" version="1.1" xmlns="http://www.w3.org/2000/svg" xmlns:xlink="http://www.w3.org/1999/xlink">
    <title>0DB7B890-2D12-4312-B6EC-8D4AD8E652AF</title>
    <g id="Symbols" stroke="none" stroke-width="1" fill="none" fill-rule="evenodd">
        <g id="Icons/Status/Loading">
            <path d="M16,0 C24.836556,0 32,7.163444 32,16 C32,24.836556 24.836556,32 16,32 C7.163444,32 0,24.836556 0,16 C0,7.163444 7.163444,0 16,0 Z M16,4 C9.372583,4 4,9.372583 4,16 C4,22.627417 9.372583,28 16,28 C22.627417,28 28,22.627417 28,16 C28,9.372583 22.627417,4 16,4 Z" id="Background" fill="#DEDEDE"></path>
            <path d="M16,-3.01980663e-14 C24.836556,-3.01980663e-14 32,7.163444 32,16 C32,24.836556 24.836556,32 16,32 C14.8954305,32 14,31.1045695 14,30 C14,28.8954305 14.8954305,28 16,28 C22.627417,28 28,22.627417 28,16 C28,9.372583 22.627417,4 16,4 C9.372583,4 4,9.372583 4,16 C4,17.1045695 3.1045695,18 2,18 C0.8954305,18 0,17.1045695 0,16 C0,7.163444 7.163444,-3.01980663e-14 16,-3.01980663e-14 Z" id="Loader" fill="#0066B4" transform="translate(16.000000, 16.000000) rotate(-180.000000) translate(-16.000000, -16.000000) "></path>
        </g>
    </g>
</svg>